<?xml version="1.0" encoding="utf-8"?>
<!-- Generator: Adobe Illustrator 24.1.1, SVG Export Plug-In . SVG Version: 6.00 Build 0)  -->
<svg version="1.1" id="Layer_1" xmlns="http://www.w3.org/2000/svg" xmlns:xlink="http://www.w3.org/1999/xlink" x="0px" y="0px"
	 viewBox="0 0 512 512" style="enable-background:new 0 0 512 512;" xml:space="preserve">
<style type="text/css">
	.st0{fill:#8080F2;}
	.st1{fill:#4B32C3;}
</style>
<g>
	<path class="st0" d="M155.9,192.3l97.1-56.1c2.4-1.4,5.4-1.4,7.9,0l97.1,56.1c2.4,1.4,3.9,4,3.9,6.8v112.2c0,2.8-1.5,5.4-3.9,6.8
		l-97.1,56.1c-2.4,1.4-5.4,1.4-7.9,0L155.9,318c-2.4-1.4-3.9-4-3.9-6.8V199.1C152,196.3,153.5,193.7,155.9,192.3"/>
	<path class="st1" d="M508.8,246L392.6,43.8c-4.2-7.3-12-12.7-20.5-12.7H139.8c-8.4,0-16.2,5.4-20.5,12.7L3.2,245.5
		c-4.2,7.3-4.2,16.5,0,23.8l116.2,200.5c4.2,7.3,12,11,20.5,11h232.4c8.4,0,16.2-3.6,20.5-10.9l116.2-200.8
		C513.1,261.8,513.1,253.3,508.8,246z M412.6,343.2c0,3-1.8,5.7-4.4,7.2l-148,85.4c-2.6,1.5-5.8,1.5-8.4,0l-148.1-85.4
		c-2.6-1.5-4.4-4.2-4.4-7.2V172.4c0-3,1.8-5.7,4.4-7.2l148-85.4c2.6-1.5,5.8-1.5,8.4,0l148.1,85.4c2.6,1.5,4.4,4.2,4.4,7.2V343.2z"
		/>
</g>
</svg>
